<svg width="174" height="41" viewBox="0 0 174 41" fill="none" xmlns="http://www.w3.org/2000/svg">
<path d="M19.25 8.25V23.2344C19.25 25.724 18.4688 27.6927 16.9062 29.1406C15.3542 30.5885 13.2292 31.3125 10.5312 31.3125C7.875 31.3125 5.76562 30.6094 4.20312 29.2031C2.64062 27.7969 1.84375 25.8646 1.8125 23.4062V8.25H6.5V23.2656C6.5 24.7552 6.85417 25.8438 7.5625 26.5312C8.28125 27.2083 9.27083 27.5469 10.5312 27.5469C13.1667 27.5469 14.5052 26.1615 14.5469 23.3906V8.25H19.25ZM38.0156 22.7031C38.0156 25.3073 37.4219 27.3958 36.2344 28.9688C35.0573 30.5312 33.4635 31.3125 31.4531 31.3125C29.7448 31.3125 28.3646 30.7188 27.3125 29.5312V37.5H22.7969V14.0938H26.9844L27.1406 15.75C28.2344 14.4375 29.6615 13.7812 31.4219 13.7812C33.5052 13.7812 35.125 14.5521 36.2812 16.0938C37.4375 17.6354 38.0156 19.7604 38.0156 22.4688V22.7031ZM33.5 22.375C33.5 20.8021 33.2188 19.5885 32.6562 18.7344C32.1042 17.8802 31.2969 17.4531 30.2344 17.4531C28.8177 17.4531 27.8438 17.9948 27.3125 19.0781V26C27.8646 27.1146 28.849 27.6719 30.2656 27.6719C32.4219 27.6719 33.5 25.9062 33.5 22.375ZM59.125 28.125C58.2812 29.1354 57.0885 29.9219 55.5469 30.4844C54.0052 31.0365 52.2969 31.3125 50.4219 31.3125C48.4531 31.3125 46.724 30.8854 45.2344 30.0312C43.7552 29.1667 42.6094 27.9167 41.7969 26.2812C40.9948 24.6458 40.5833 22.724 40.5625 20.5156V18.9688C40.5625 16.6979 40.9427 14.7344 41.7031 13.0781C42.474 11.4115 43.5781 10.1406 45.0156 9.26562C46.4635 8.38021 48.1562 7.9375 50.0938 7.9375C52.7917 7.9375 54.901 8.58333 56.4219 9.875C57.9427 11.1562 58.8438 13.026 59.125 15.4844H54.5625C54.3542 14.1823 53.8906 13.2292 53.1719 12.625C52.4635 12.0208 51.4844 11.7188 50.2344 11.7188C48.6406 11.7188 47.4271 12.3177 46.5938 13.5156C45.7604 14.7135 45.3385 16.4948 45.3281 18.8594V20.3125C45.3281 22.6979 45.7812 24.5 46.6875 25.7188C47.5938 26.9375 48.9219 27.5469 50.6719 27.5469C52.4323 27.5469 53.6875 27.1719 54.4375 26.4219V22.5H50.1719V19.0469H59.125V28.125ZM72.1406 18.3281C71.526 18.2448 70.9844 18.2031 70.5156 18.2031C68.8073 18.2031 67.6875 18.7812 67.1562 19.9375V31H62.6406V14.0938H66.9062L67.0312 16.1094C67.9375 14.5573 69.1927 13.7812 70.7969 13.7812C71.2969 13.7812 71.7656 13.849 72.2031 13.9844L72.1406 18.3281ZM83.6562 31C83.4479 30.5938 83.2969 30.0885 83.2031 29.4844C82.1094 30.7031 80.6875 31.3125 78.9375 31.3125C77.2812 31.3125 75.9062 30.8333 74.8125 29.875C73.7292 28.9167 73.1875 27.7083 73.1875 26.25C73.1875 24.4583 73.849 23.0833 75.1719 22.125C76.5052 21.1667 78.4271 20.6823 80.9375 20.6719H83.0156V19.7031C83.0156 18.9219 82.8125 18.2969 82.4062 17.8281C82.0104 17.3594 81.3802 17.125 80.5156 17.125C79.7552 17.125 79.1562 17.3073 78.7188 17.6719C78.2917 18.0365 78.0781 18.5365 78.0781 19.1719H73.5625C73.5625 18.1927 73.8646 17.2865 74.4688 16.4531C75.0729 15.6198 75.9271 14.9688 77.0312 14.5C78.1354 14.0208 79.375 13.7812 80.75 13.7812C82.8333 13.7812 84.4844 14.3073 85.7031 15.3594C86.9323 16.401 87.5469 17.8698 87.5469 19.7656V27.0938C87.5573 28.6979 87.7812 29.9115 88.2188 30.7344V31H83.6562ZM79.9219 27.8594C80.5885 27.8594 81.2031 27.7135 81.7656 27.4219C82.3281 27.1198 82.7448 26.7188 83.0156 26.2188V23.3125H81.3281C79.0677 23.3125 77.8646 24.0938 77.7188 25.6562L77.7031 25.9219C77.7031 26.4844 77.901 26.9479 78.2969 27.3125C78.6927 27.6771 79.2344 27.8594 79.9219 27.8594ZM90.3125 22.4219C90.3125 19.7865 90.901 17.6875 92.0781 16.125C93.2656 14.5625 94.8854 13.7812 96.9375 13.7812C98.5833 13.7812 99.9427 14.3958 101.016 15.625V7H105.547V31H101.469L101.25 29.2031C100.125 30.6094 98.6771 31.3125 96.9062 31.3125C94.9167 31.3125 93.3177 30.5312 92.1094 28.9688C90.9115 27.3958 90.3125 25.2135 90.3125 22.4219ZM94.8281 22.75C94.8281 24.3333 95.1042 25.5469 95.6562 26.3906C96.2083 27.2344 97.0104 27.6562 98.0625 27.6562C99.4583 27.6562 100.443 27.0677 101.016 25.8906V19.2188C100.453 18.0417 99.4792 17.4531 98.0938 17.4531C95.9167 17.4531 94.8281 19.2188 94.8281 22.75ZM116.828 31.3125C114.349 31.3125 112.328 30.5521 110.766 29.0312C109.214 27.5104 108.438 25.4844 108.438 22.9531V22.5156C108.438 20.8177 108.766 19.3021 109.422 17.9688C110.078 16.625 111.005 15.5938 112.203 14.875C113.411 14.1458 114.786 13.7812 116.328 13.7812C118.641 13.7812 120.458 14.5104 121.781 15.9688C123.115 17.4271 123.781 19.4948 123.781 22.1719V24.0156H113.016C113.161 25.1198 113.599 26.0052 114.328 26.6719C115.068 27.3385 116 27.6719 117.125 27.6719C118.865 27.6719 120.224 27.0417 121.203 25.7812L123.422 28.2656C122.745 29.224 121.828 29.974 120.672 30.5156C119.516 31.0469 118.234 31.3125 116.828 31.3125ZM116.312 17.4375C115.417 17.4375 114.688 17.7396 114.125 18.3438C113.573 18.9479 113.219 19.8125 113.062 20.9375H119.344V20.5781C119.323 19.5781 119.052 18.8073 118.531 18.2656C118.01 17.7135 117.271 17.4375 116.312 17.4375Z" fill="#0066CC"/>
<path d="M164 1.5H144C138.753 1.5 134.5 5.75329 134.5 11V31C134.5 36.2467 138.753 40.5 144 40.5H164C169.247 40.5 173.5 36.2467 173.5 31V11C173.5 5.75329 169.247 1.5 164 1.5Z" fill="#005BAA" fill-opacity="0.15" stroke="#005BAE"/>
<path d="M160 0.5H144C138.753 0.5 134.5 4.75329 134.5 10V26C134.5 31.2467 138.753 35.5 144 35.5H160C165.247 35.5 169.5 31.2467 169.5 26V10C169.5 4.75329 165.247 0.5 160 0.5Z" fill="white" stroke="#005BAE"/>
<path d="M152 6L157.196 15H146.804L152 6Z" fill="#005BAA"/>
<path d="M153 14H151V26H153V14Z" fill="#005BAA"/>
<path d="M164.39 34.6877L168.39 39.6877" stroke="#005BAA"/>
</svg>
